<?xml version="1.0" encoding="UTF-8"?><svg id="_イヤー_2" xmlns="http://www.w3.org/2000/svg" viewBox="0 0 209 209"><defs><style>.cls-1{fill:none;}.cls-2{fill:#fff;}.cls-3{fill:#c61628;}.cls-4{fill:#170604;}</style></defs><g id="_design"><rect class="cls-1" width="209" height="209"/><g><rect class="cls-3" x="34.897" y="74.79" width="139.206" height="59.42"/><path class="cls-4" d="M174.103,134.21v-53.874c-.812,.516-1.599,1.03-2.394,1.555-2.757,2.438-5.506,4.881-8.239,7.326-1.211,1.538-2.438,3.057-3.641,4.598-.013,.015-.029,.021-.042,.044-.076,.126-.185,.248-.296,.38-.046,.055-.103,.08-.18,.09-.09,.011-.199,.011-.315,.025-.246,.05-.499,.036-.741-.015-.187-.052-.338-.136-.497-.22-.275-.134-.565-.214-.869-.26-.048-.015-.092-.029-.126-.044-.088-.059-.159-.097-.227-.162-.042-.048-.082-.078-.155-.094-.034-.031-.115-.023-.143,.023-.109,.103-.243,.187-.359,.277-.174,.076-.313,.212-.428,.344-.036,.067-.071,.115-.124,.141-.201,.187-.388,.376-.581,.522-.82,.827-1.637,1.618-2.464,2.399-1.5-.909-3.125-1.542-4.831-1.903-.535,.644-1.062,1.278-1.593,1.899-.09,.122-.178,.21-.254,.325-.191,.166-.34,.353-.506,.548-.953,1.263-1.922,2.514-2.864,3.786-.023,.021-.048,.067-.063,.103-.069,.115-.172,.254-.269,.392-.036,.055-.099,.118-.174,.126-.327,.061-.651,.086-.959,.025-.132-.013-.269-.061-.367-.164-.164-.162-.325-.319-.462-.483-1.582-1.597-3.177-3.183-4.774-4.753-.069-.097-.159-.172-.277-.248-.128-.111-.3-.166-.466-.153-.183,.013-.321,.084-.478,.117-.168,.088-.344,.141-.512,.159-.411,.013-.76-.187-.982-.548-.397-.598-.82-1.192-1.232-1.792-.078-.132-.168-.216-.273-.313-.076-.05-.159-.061-.229-.05-.092,.038-.172,.08-.237,.147-.149,.145-.327,.296-.497,.413-.174,.126-.395,.195-.615,.187-.47-.069-.94-.22-1.356-.468-.296-.183-.608-.325-.959-.445-.264-.055-.533-.143-.789-.26-.6-.313-1.261-.506-1.941-.537h-.344c-.63,.086-1.251,.225-1.845,.418-.386,.132-.772,.229-1.181,.258-.399,.055-.785-.118-1.068-.409-.157-.218-.346-.422-.541-.615-1.297-1.332-2.611-2.648-3.928-3.949-1.691,1.941-4.163,3.051-6.732,3.034-.476-.015-.927-.031-1.387-.063-1.947-.204-3.895-.415-5.836-.627-1.163-.143-2.285,.069-3.318,.569-.239,.122-.493,.216-.76,.287-.497,.128-.974,.283-1.44,.487-.258,.176-.562,.262-.909,.277-.766,.057-1.557,.09-2.34,.136-1.599-.718-2.617-2.292-2.678-4.035-.961,.308-1.92,.621-2.9,.936-1.265,.392-2.638,.241-3.813-.38-.63-.353-1.228-.781-1.769-1.291-.036-.029-.088-.084-.115-.147-.065-.055-.09-.101-.145-.155-.048-.084-.145-.155-.252-.216-.032-.019-.073-.027-.128-.019-.09,.021-.176,.08-.252,.172-.08,.105-.164,.218-.218,.336-.172,.313-.418,.562-.747,.699-.229,.065-.47,.065-.711-.031-.233-.078-.422-.258-.543-.464-.422-.72-.85-1.416-1.272-2.122-.109-.185-.319-.313-.518-.365-.233-.029-.451-.063-.686-.063-.363-.019-.695-.18-.965-.428-1.748-1.677-3.502-3.383-5.24-5.089-1.66,1.773-3.316,3.53-4.946,5.288-.527,.567-1.083,1.064-1.721,1.477-1.513-.338-3.016-.688-4.552-1.049-1.184,.911-2.375,1.811-3.58,2.72-.031,.046-.099,.084-.12,.126-.195,.147-.388,.269-.623,.355-.185,.019-.384,.031-.579,0-.474-.029-.911-.147-1.389-.29-.258-.097-.535-.097-.806-.015-.193,.076-.338,.172-.441,.353-.057,.151-.176,.283-.277,.422-2.64,2.974-5.292,5.924-7.951,8.918-.76,.747-1.526,1.519-2.289,2.273-.117,.13-.231,.248-.334,.367-.212,.233-.405,.443-.64,.627-.976,.879-1.928,1.754-2.904,2.638-.306,.285-.718,.497-1.139,.569-.048,0-.082,.027-.128,.059-.04,.057-.392,.239-.392,.239l-.017,2.336s0,16.538-.019,26.281H174.103Z"/><g><path class="cls-2" d="M92.844,92.631c1.049-.867,2.042-1.775,3.018-2.724,2.063-1.305,4.13-2.625,6.193-3.935,.138-.099,.258-.199,.422-.306,.078-.08,.185-.115,.283-.164,.09-.017,.187-.017,.258,.004,.019,.008,.059,.029,.059,.057,.015,.023,.015,.042,.015,.078,0,.046-.015,.084-.046,.111-.099,.151-.235,.287-.353,.401-.09,.061-.151,.097-.216,.164-1.851,1.61-3.66,3.309-5.378,5.049-.09,.082-.174,.178-.306,.25-.115,.109-.218,.218-.332,.342-.013,.034-.04,.059-.048,.092,0,.031-.212,.374-.447,.552-1.211,.98-2.237,2.191-3.322,3.343-1.4,2.984-2.774,5.987-4.166,8.977-1.049,1.23-2.065,2.518-3.018,3.809-.063,.097-.122,.193-.18,.296-.197,.332-.365,.644-.531,.988-1.158,2.256-2.216,4.545-3.246,6.866-.103,.254-.197,.508-.273,.791-.08,.216-.172,.464-.246,.686-.953,2.231-2.298,4.281-3.939,6.083-.844-1.114-1.687-2.224-2.537-3.345,.019-1.737,.055-3.473,.069-5.252,0-.174-.015-.386-.05-.59-.019-.26-.086-.56-.151-.82-.64-2.623-1.177-5.24-1.574-7.903-.078-.321-.132-.64-.174-.946,0-.013-.017-.036-.044-.05-.239-.529-.52-1.047-.802-1.58-3.509,5.651-6.564,11.571-9.164,17.715-1.458,2.237-2.9,4.472-4.346,6.721-.055,.073-.13,.097-.218,.067-.084-.042-.138-.122-.107-.218,.644-3.164,1.284-6.36,1.922-9.544,3.005-5.811,6-11.623,8.984-17.421,.334-1.429,.657-2.846,.972-4.266,1.404-.353,2.804-.701,4.22-1.032,.483,3.578,.997,7.143,1.477,10.711,.05,.35,.149,.688,.231,1.037,.048,.138,.094,.308,.128,.46,.478,2.067,.955,4.147,1.419,6.216,2.382-4.178,4.818-8.285,7.343-12.364,.055-.094,.122-.193,.183-.29,.208-.269,.409-.543,.615-.82,1.253-1.626,2.478-3.263,3.744-4.904,1.018-.965,3.102-2.896,3.102-2.896,0,0,.468-.399,.56-.493Z"/><path class="cls-2" d="M101.076,122.639c-.609-1.416-1.205-2.839-1.803-4.275-.097-.21-.183-.434-.252-.669-.097-.271-.162-.529-.206-.814-.235-1.211-.778-2.357-1.561-3.303,.89-.512,1.777-.982,2.654-1.484,1.005-.573,1.83-1.374,2.403-2.382-1.929,.724-3.832,1.435-5.733,2.153-.772-2.447-1.561-4.871-2.34-7.282-.113-.443-.418-.802-.831-1.007-.405-.191-.862-.229-1.282-.084-.753,.267-1.513,.512-2.245,.785v.029c0,.052,.006,.115,.025,.172,.09,.374,.162,.745,.218,1.125,0,.065,0,.132-.01,.193-.053,.227-.095,.449-.118,.667-.031,.254-.109,.499-.229,.718-1.33,2.199-2.678,4.394-4.016,6.577-.126,.248-.325,.422-.585,.508-.321,.107-.554,.348-.678,.638-.195,.518-.409,1.007-.606,1.477,0,.036-.01,.061-.01,.084-.031,.103-.019,.241,.029,.332,.055,.145,.105,.277,.178,.418,.092,.21,.092,.47-.008,.674-.894,1.863-1.771,3.714-2.648,5.584-.065,.059-.029,.145,.027,.199,.069,.042,.164,.042,.191,0,1.519-1.171,2.986-2.333,4.478-3.486,.294-.229,.495-.537,.604-.904,.059-.344,.126-.692,.18-1.043,.023-.103,.111-.199,.199-.264,.132-.086,.285-.122,.439-.157,.109-.042,.252-.09,.369-.122,.995-.457,1.97-.988,2.862-1.626,.241-.183,.522-.369,.791-.525,.097-.048,.174-.09,.271-.122,.898-.248,1.761-.525,2.667-.76,.661,.833,1.305,1.706,1.962,2.568,.109,.151,.191,.302,.26,.453,.126,.21,.206,.457,.283,.68,.85,2.804,2.073,5.446,3.653,7.905,0,.013,.019,.036,.019,.048,.084,.155,.18,.313,.294,.451,.044,.019,.073,.073,.141,.084h.078c.057-.01,.111-.078,.111-.138,.027-.071,.027-.132,.027-.216-.067-.254-.117-.489-.187-.73-.264-1.037-.283-2.096-.067-3.129Zm-11.762-8.704c.917-1.744,2.059-3.353,3.383-4.837,.374,1.152,.747,2.292,1.125,3.444-1.517,.47-3.036,.921-4.507,1.393Z"/><path class="cls-2" d="M117.468,106.512c-1.872,3.628-3.439,7.41-4.659,11.311-.126,1.127-.229,2.266-.34,3.412-.816,.252-1.61,.512-2.405,.76-.751-.699-1.456-1.4-2.205-2.08,.279-.495,.562-.978,.856-1.467-1.03-2.615-2.061-5.231-3.091-7.855-.097,1.815-.193,3.635-.29,5.456-.535,.615-.846,1.362-.869,2.17-.013,.321-.029,.663-.042,.984,0,.12-.025,.216-.025,.319-.036,1.326-.512,2.604-1.381,3.624-.279-4.275-.315-8.555-.132-12.83,.013-.411,.019-.795,.013-1.194-.013-.206-.013-.422-.048-.609-.157-1.423-.329-2.82-.495-4.222,1.622-.063,3.215,.613,4.3,1.821,.258,2.117,1.039,4.149,2.266,5.897,.434,1.303,.875,2.623,1.305,3.924,.919-1.513,1.859-3.049,2.783-4.575,.434-1.171,.85-2.346,1.257-3.509v-.031c.143-.699,.25-1.41,.371-2.107,.235-1.435,.483-2.873,.724-4.323,.029-.097,.107-.166,.204-.189,.117,0,.218,.044,.256,.157,.546,1.725,1.102,3.444,1.647,5.154Z"/><path class="cls-2" d="M130.35,105.488c-1.032,.355-2.052,.77-3.047,1.259-.138,.071-.275,.138-.392,.229-.252,.174-.493,.35-.76,.537-1.114,.879-2.098,1.916-2.921,3.104-1.236,.936-2.487,1.876-3.756,2.841,1.96,1.916,3.916,3.851,5.869,5.769,1.102-1.169,1.345-2.887,.663-4.329-1.205,.176-2.392,.357-3.622,.525-.088-.808-.193-1.664-.29-2.482-.019-.044,0-.086,0-.115,.055-.151,.138-.248,.246-.357,.164-.197,.39-.325,.653-.422,.082-.036,.204-.029,.298,0,.019,.025,.021,.042,.057,.042,.384,.279,.827,.399,1.295,.428,.078,.006,.147,.013,.237,.025,2.149,.036,4.277,.013,6.417-.097,.185-.025,.397-.036,.571-.042,.153-.013,.34,.006,.478,.065,.046,0,.059,.019,.076,.025,.048,.048,.055,.084,.031,.132l-.048,.048c-.115,.132-.237,.199-.384,.26-.967,.38-1.943,.76-2.902,1.163-.491,1.326-.821,2.72-.978,4.136,.241,.579,.302,1.188,.183,1.784-.241,1.339-.932,2.545-1.964,3.418-.105,.134-.243,.237-.388,.308-.151,.078-.323,.078-.47,.029-.174-.071-.332-.155-.464-.264-.543-.361-1.02-.795-1.423-1.297-2.583-3.11-5.137-6.222-7.712-9.357,1.664-1.494,3.46-2.852,5.378-4.027,.172-.126,.38-.21,.56-.306,.254-.122,.499-.254,.724-.405,2.762-1.821,5.42-3.838,7.917-6.039,.155-.145,.329-.29,.523-.382,.048-.052,.12-.069,.166-.088,.029-.006,.057-.006,.082,.019,.029,.017,.044,.042,.048,.069v.141c-.004,.025-.013,.055-.013,.097-.319,1.181-.621,2.361-.938,3.557Z"/><path class="cls-2" d="M150.514,109.943s-.019-.025-.019-.038c-.029,0-.05-.01-.094-.01-.151-.038-.302-.038-.453-.025-.248,.036-.506,.08-.741,.132-2.401,.434-4.764,.995-7.103,1.683-1.018-2.64-1.88-5.33-2.633-8.06-.869-.39-1.759-.783-2.636-1.175-.85,.651-1.666,1.278-2.535,1.924,.592,.825,1.175,1.681,1.773,2.499-.986,2.69-2.084,5.317-3.307,7.886-.705,.235-1.393,.464-2.086,.695,.151,1.06,.29,2.109,.451,3.165-.657,1.23-1.301,2.472-1.941,3.725,.434,.386,.881,.804,1.32,1.194,.567-.476,1.123-.976,1.698-1.465,.533-1.188,1.083-2.363,1.62-3.538,.85-.315,1.729-.64,2.585-.959,1.2-.93,2.405-1.876,3.626-2.816,.621,1.696,1.257,3.383,1.878,5.07,.619,.881,1.207,1.773,1.809,2.655,.332,1.047,.636,2.067,.923,3.116,.006,.103,.023,.18,.038,.271,.04,.193,.09,.374,.166,.537,.042,.065,.097,.113,.149,.151,.063,.042,.166,.029,.224-.013,.061-.048,.113-.115,.157-.181,.082-.138,.145-.267,.193-.422,.384-.772,.772-1.538,1.139-2.304,.042-.061,.055-.109,.078-.168,.092-.224,.069-.447-.036-.64-.09-.193-.193-.367-.319-.518-.42-.682-.808-1.387-1.152-2.115-.13-.321-.285-.627-.441-.946-.042-.134-.12-.231-.191-.369-.925-1.62-1.584-3.387-1.922-5.231,.904-.483,1.803-.978,2.705-1.461,.115-.048,.216-.145,.332-.235,.206-.145,.422-.264,.669-.355,1.158-.453,2.315-.881,3.473-1.309,.187-.042,.355-.132,.506-.216,.048-.019,.078-.042,.097-.073v-.017c.034-.036,.019-.036,0-.042Zm-11.684,2.869c-.145,.122-.306,.224-.512,.248-.26,.078-.495,.145-.779,.199-.145,.048-.277,.103-.422,.187-.241,.084-.47,.162-.734,.199-.034,0-.097,0-.145-.013-.042,0-.055-.013-.084-.036-.025-.031-.038-.067-.038-.097,.013-.055,.031-.103,.048-.151,.019-.036,.031-.061,.055-.09,.428-.634,.823-1.309,1.236-1.954,.055-.122,.136-.248,.18-.338,.038-.067,.107-.132,.157-.157,.061-.036,.147-.036,.233,0,.057,.042,.128,.128,.187,.231,.063,.113,.105,.235,.153,.367,.027,.103,.076,.216,.168,.306,.115,.212,.246,.386,.353,.592,.031,.084,.059,.162,.059,.271-.013,.061-.042,.157-.115,.235Z"/></g><path class="cls-2" d="M146.693,94.685h1.211c.405,0,.753,.103,.753,.657,0,.434-.271,.678-.724,.678h-1.24v-1.335Zm-.749,3.67h.749v-1.765h1.121c.688,0,.841,.359,.841,1.135,0,.212,0,.455,.099,.63h.808c-.159-.17-.237-.63-.237-1.127,0-.686-.378-.873-.634-.9v-.031c.143-.029,.711-.248,.711-1.07,0-.718-.478-1.175-1.414-1.175h-2.044v4.304Z"/><path class="cls-2" d="M143.954,96.228c0,2.017,1.651,3.653,3.653,3.653,2.027,0,3.672-1.637,3.672-3.653s-1.645-3.66-3.672-3.66c-2.002,0-3.653,1.635-3.653,3.66Zm.512,0c0-1.742,1.393-3.156,3.141-3.156s3.175,1.414,3.175,3.156-1.421,3.16-3.175,3.16-3.141-1.423-3.141-3.16Z"/></g></g></svg>