<?xml version="1.0" encoding="UTF-8"?><svg id="b" xmlns="http://www.w3.org/2000/svg" viewBox="0 0 302.28455 302.28455"><defs><style>.d{fill:none;}.e{fill:#170604;}</style></defs><g id="c"><rect class="d" width="302.28455" height="302.28455"/><g><path class="e" d="M77.87375,139.71803c-.69292,0-1.4151-.06423-2.10244-.10335v2.00882c.75157-.09498,2.06403-.29618,2.32874-.29618,.29961,0,.39674,.0643,.49523,.26542,.16694,.29754,.32965,1.28242,.32965,5.52078v11.08053c0,1.83981,0,2.52994-.13618,2.8219-.12645,.23603-.25985,.33244-.61746,.33244-.62934,0-1.64841-.19555-2.07448-.22909v1.97391c1.37462-.07267,2.69194-.19977,4.04209-.19977,1.4849,0,2.93219,.1271,4.30673,.19977v-1.97391c-.32965,.03354-1.34872,.22909-1.97313,.22909-.35626,0-.49459-.09641-.62376-.33244-.12852-.29196-.12852-.98209-.12852-2.8219v-6.51396c1.24744-1.47239,2.82883-3.51611,4.89772-3.51611,1.11613,0,1.93965,.4624,2.42995,1.08122,.65939,.82839,.82352,1.82021,.82352,3.15992v5.78892c0,1.83981,0,2.52994-.13132,2.8219-.13132,.23603-.2612,.33244-.62304,.33244-.62376,0-1.64418-.19555-1.97247-.22909v1.97391c1.34872-.07267,2.75616-.19977,4.13914-.19977,1.34872,0,2.76525,.1271,4.21389,.19977v-1.97391c-.43658,.03354-1.44864,.22909-2.07376,.22909-.3632,0-.49452-.09641-.62233-.33244-.13625-.29196-.13625-.98209-.13625-2.8219v-6.64248c0-2.92518-1.18107-5.48859-5.0269-5.48859-2.37058,0-3.81572,1.14688-5.91815,3.48542v-4.20488c0-1.97384,0-4.37382,.16271-5.92446-1.70634,.19562-2.69401,.29897-4.00919,.29897"/><path class="e" d="M101.21674,158.78498c0-1.51287,.68942-2.30357,1.31589-2.8651,1.53877-1.37605,4.13636-1.57159,5.68492-1.57159v4.36688c-1.7469,1.7783-2.92661,2.83155-4.53868,2.83155-1.6743,0-2.46213-1.48355-2.46213-2.76175m-1.67702-11.73576v3.28423h2.09822c-.06151-.45682-.06151-.65659-.06151-.89126,0-1.57016,1.87614-1.93479,3.18438-1.93479,2.17226,0,3.45674,.85492,3.45674,3.5832v1.80762c-4.86841,.25985-10.12583,1.45007-10.12583,6.31283,0,2.76039,1.84052,4.30401,4.49963,4.30401,2.50054,0,3.85413-.94712,5.72469-3.0565l.06072,.06566c0,.75708-.03004,2.01018-.15921,2.72963,2.30285-.16064,2.79529-.16064,5.52564-.16064v-1.97391c-.43307,.03354-1.44584,.22909-2.08077,.22909-.35067,0-.48686-.09641-.61468-.33244-.13132-.29196-.13132-.98488-.13132-2.8219v-7.29764c0-1.94316-.30033-4.832-5.59759-4.832-2.23369,0-4.03644,.49173-5.77912,.98481"/><path class="e" d="M121.46269,149.70905c0-.75436,.07196-2.27009,.16837-3.32199-1.27892,.13411-3.08518,.29475-4.13708,.29475-.30526,0-.59722,0-.86329-.02932-.29196,0-.58886-.03068-.88775-.06981v2.00739c.85557-.09362,2.0744-.28917,2.43696-.28917,.26264,0,.46097,.1271,.4903,.45682,.03776,.23045,.13275,1.53941,.13275,2.82741v6.60894c0,1.83981,0,2.52994-.13275,2.8219-.12431,.23603-.2612,.33244-.62369,.33244-.62583,0-1.63867-.19555-2.06818-.23052v1.97534c1.37948-.07131,2.69187-.19977,4.04345-.19977,1.48004,0,2.91888,.12846,4.29908,.19977v-1.97534c-.31985,.03498-1.34522,.23052-1.96898,.23052-.35554,0-.4938-.09641-.62025-.33244-.13268-.29196-.13268-.98209-.13268-2.8219v-6.51396c1.24674-1.47239,2.82948-3.51468,4.90045-3.51468,1.11406,0,1.93829,.46097,2.43352,1.08122,.65237,.82696,.81716,1.81742,.81716,3.15985v5.78756c0,1.83981,0,2.52994-.13132,2.8219-.12846,.23603-.26471,.33244-.62233,.33244-.62512,0-1.64698-.19555-1.9732-.23052v1.97534c1.34808-.07131,2.76389-.19977,4.14058-.19977,1.3425,0,2.75967,.12846,4.20345,.19977v-1.97534c-.42328,.03498-1.44378,.23052-2.06332,.23052-.3632,0-.49244-.09641-.62726-.33244-.13132-.29196-.13132-.98209-.13132-2.8219v-6.64105c0-2.92661-1.18601-5.48859-5.0269-5.48859-2.796,0-4.40528,1.80762-6.05577,3.64464"/><path class="e" d="M140.66869,155.36808c0-4.0107,1.25167-7.76848,5.42293-7.76848,1.38297,0,2.86302,.79906,3.68447,2.01726v8.21679c-1.45286,2.06611-3.1592,3.71308-4.93335,3.71308-2.5313,0-4.17405-2.7031-4.17405-6.17865m8.04985-15.65004c-.69142,0-1.40809-.06423-2.10165-.10335v2.00882c.75716-.09498,2.06954-.29618,2.33775-.29618,.29196,0,.39395,.0643,.48479,.26542,.16902,.29754,.33666,1.28242,.33666,5.52078-.82145-.63005-2.10316-1.05054-3.88496-1.05054-5.52141,0-8.44173,4.6351-8.44173,9.46295,0,3.95333,1.93478,7.98913,6.50765,7.98913,2.00467,0,3.74528-.78791,5.91258-3.77595l.0643,.06287c0,1.74475-.02796,2.82605-.15785,3.45188,1.34386-.09784,2.36779-.16064,3.61109-.16064h2.0081v-1.97391c-.43029,.03354-1.44793,.22909-2.07798,.22909-.3534,0-.48615-.09641-.62304-.33244-.12846-.29196-.12846-.98209-.12846-2.8219v-12.85053c0-1.97384,0-4.37382,.17038-5.92446-1.71265,.19562-2.70168,.29897-4.01764,.29897"/><path class="e" d="M157.89161,150.75952c0,2.99091,1.94315,3.85141,3.55107,4.46888l4.04696,1.54498c.81723,.29754,1.90825,.92895,1.90825,2.43767,0,2.07312-2.07312,2.85816-3.91707,2.85816-2.07168,0-3.61531-.58671-3.61531-1.77136,0-.5252,.06988-.81716,.13554-1.15246h-2.10944v3.45324c2.07032,.55738,3.32334,.91779,5.42436,.91779,4.67278,0,6.77522-2.20293,6.77522-5.19384,0-2.98948-2.10244-3.87652-4.04281-4.57216l-2.629-.91643c-1.68051-.59508-3.11801-1.15389-3.11801-2.89306,0-1.77551,1.6065-2.43074,3.77452-2.43074,2.17225,0,3.05515,.81587,3.05515,1.60793,0,.46097-.05865,.85771-.13269,1.31589h2.10659v-3.48399c-1.68195-.46655-3.19481-.88561-5.02905-.88561-4.14051,0-6.18429,2.52565-6.18429,4.69511"/><path class="e" d="M176.57304,155.0342c0-3.77874,.84656-7.52401,4.69654-7.52401,3.58041,0,4.70076,3.4463,4.70076,7.03229,0,4.1727-.95134,7.52673-4.70076,7.52673-3.5832,0-4.69654-3.44766-4.69654-7.03501m-3.22694-.19419c0,3.84018,2.13591,8.67641,7.72793,8.67641s8.12324-4.66993,8.12324-8.77003c0-3.85134-2.23934-8.68198-7.72657-8.68198-5.36006,0-8.1246,4.3696-8.1246,8.77561"/><path class="e" d="M197.54824,149.70905c0-.75436,.06845-2.27009,.16065-3.32199-1.28385,.13411-3.09148,.29475-4.14059,.29475-.29339,0-.58814,0-.85771-.02932-.29475,0-.5895-.03068-.88847-.06981v2.00739c.85635-.09362,2.07726-.28917,2.4391-.28917,.2612,0,.45396,.1271,.49452,.45682,.02654,.23045,.12846,1.53941,.12846,2.82741v6.60894c0,1.83981,0,2.52994-.12846,2.8219-.13833,.23603-.27386,.33244-.62862,.33244-.62447,0-1.64426-.19555-2.07726-.23052v1.97534c1.38992-.07131,2.70589-.19977,4.04553-.19977,1.48355,0,2.93641,.12846,4.31102,.19977v-1.97534c-.33108,.03498-1.34107,.23052-1.97391,.23052-.36184,0-.49037-.09641-.62168-.33244-.13547-.29196-.13547-.98209-.13547-2.8219v-6.51396c1.25167-1.47239,2.82741-3.51468,4.90467-3.51468,1.11477,0,1.9418,.46097,2.43209,1.08122,.66074,.82696,.82417,1.81742,.82417,3.15985v5.78756c0,1.83981,0,2.52994-.1369,2.8219-.12989,.23603-.26399,.33244-.62304,.33244-.62862,0-1.64834-.19555-1.97105-.23052v1.97534c1.34243-.07131,2.76039-.19977,4.13493-.19977,1.35924,0,2.76039,.12846,4.20903,.19977v-1.97534c-.4275,.03498-1.44864,.23052-2.06468,.23052-.36878,0-.49037-.09641-.63141-.33244-.13411-.29196-.13411-.98209-.13411-2.8219v-6.64105c0-2.92661-1.17349-5.48859-5.02626-5.48859-2.79107,0-4.399,1.80762-6.04455,3.64464"/><path class="e" d="M224.20758,165.38834c0-1.44578,1.25167-2.33425,2.43345-3.28559l6.11308,.95134c2.36921,.39674,2.96429,1.02393,2.96429,2.0046,0,1.88029-2.1038,3.32471-6.05291,3.32471-3.51618,0-5.45791-.95828-5.45791-2.99506m1.7406-14.03096c0-2.17225,1.38992-3.98545,3.65165-3.98545,2.50469,0,3.81644,1.8132,3.81644,4.30816,0,2.16667-1.6735,3.84583-3.64743,3.84583-2.36365,0-3.82066-1.87471-3.82066-4.16855m-2.88749,.19562c0,2.53545,1.6414,3.57898,2.73099,4.3068-1.05468,.98624-2.47258,2.46278-2.47258,3.71444,0,1.50736,1.35087,2.00324,1.88172,2.20021-2.86653,1.77551-3.4267,2.72684-3.4267,4.01484,0,1.90403,1.81184,4.03716,7.3982,4.03716,5.95099,0,9.04382-2.29656,9.04382-5.64787,0-3.02574-2.99227-3.48399-5.19383-3.81508l-3.91422-.59086c-1.77-.26964-3.28845-.49452-3.28845-1.51294,0-.62304,.55597-1.38155,1.1539-1.81184,.71802,.16064,1.60928,.36463,2.85536,.36463,3.88632,0,6.48041-2.30214,6.48041-5.33353,0-1.69733-.59093-2.5564-1.12314-3.2451l3.22837,.39252v-1.94459c-.75858,.04191-3.58735,.0992-4.66721,.0992-.72502-.29754-2.04236-.7166-4.04696-.7166-3.22558,0-6.63969,1.6763-6.63969,5.48859"/><path class="e" d="M246.11031,149.70905c0-.75436,.06566-2.27009,.1635-3.32199-1.29079,.13411-3.09705,.29475-4.14895,.29475-.28917,0-.58671,0-.84934-.02932-.2906,0-.59371-.03068-.88432-.06981v2.00739c.84656-.09362,2.06475-.28917,2.42516-.28917,.26678,0,.4624,.1271,.49308,.45682,.03776,.23045,.13833,1.53941,.13833,2.82741v6.60894c0,1.83981,0,2.52994-.13833,2.8219-.13268,.23603-.2612,.33244-.62304,.33244-.62862,0-1.64276-.19555-2.07169-.23052v1.97534c1.44306-.07131,2.92662-.19977,4.36831-.19977,1.6861,0,3.16407,.12846,4.6057,.19977v-1.97534c-.65795,.03498-1.9641,.23052-2.59832,.23052-.35898,0-.4903-.09641-.61882-.33244-.13411-.29196-.13411-.98209-.13411-2.8219v-6.51396c1.21812-1.40952,2.82598-3.51468,4.27326-3.51468,.6887,0,1.12314,.49308,1.12314,1.21812,0,.23467-.03769,.65659-.10477,.94991h2.07167v-3.97572c-.61603-.19834-1.3774-.29332-1.8426-.29332-2.0395,0-2.88749,.55738-5.64787,3.64464"/><path class="e" d="M256.68803,146.6818c-.29339,0-.59229,0-.8507-.02932-.29761,0-.59236-.03068-.88711-.06845v2.00603c.85914-.09498,2.0689-.28917,2.43209-.28917,.26399,0,.45682,.1271,.4973,.45539,.0349,.23331,.12853,1.54084,.12853,2.82884v6.60894c0,1.83981,0,2.52994-.12853,2.8219-.13547,.23603-.26542,.33523-.62583,.33523-.62718,0-1.64419-.19834-2.07169-.23331v1.97534c1.38019-.07267,2.69752-.19977,4.03859-.19977,1.48219,0,3.09706,.1271,4.40738,.19977v-1.97534c-.42608,.03498-1.44587,.23331-2.07449,.23331-.36041,0-.48892-.0992-.61882-.33523-.12989-.29196-.12989-.98209-.12989-2.8219v-6.83667c0-1.68052,.03347-3.32328,.16479-4.9689-1.41925,.09634-3.32335,.29332-4.28163,.29332m.65938-5.51792c0,.98767,.82975,1.80905,1.80905,1.80905,.98625,0,1.8132-.82138,1.8132-1.80905,0-.98624-.82695-1.80762-1.8132-1.80762-.9793,0-1.80905,.82138-1.80905,1.80762"/><path class="e" d="M271.05565,160.96002v-9.27992c1.51431-2.06189,3.09147-3.51468,4.96754-3.51468,1.57853,0,2.43066,.75715,3.05371,1.64555,.65938,.94855,1.02122,2.07033,1.02122,4.30266,0,6.11578-3.22,7.95559-5.58086,7.95559-1.58554,0-2.40692-.39674-3.46161-1.10919m-.06287-11.25097h-.06702c0-.75436,.06702-2.27009,.16479-3.32199-1.28378,.13411-3.08861,.29475-4.14051,.29475-.29761,0-.59651,0-.855-.02932-.29754,0-.59644-.03068-.88703-.06981v2.00739c.84654-.09362,2.07589-.28917,2.42786-.28917,.26542,0,.46941,.1271,.49595,.45682,.0349,.23045,.12853,1.53941,.12853,2.82741v13.20815c0,1.84953,0,2.54246-.12853,2.83298-.12989,.23195-.26399,.33251-.62025,.33251-.62719,0-1.6512-.20256-2.07169-.23889v1.97806c1.44449-.06423,2.92525-.20112,4.36688-.20112,1.68195,0,3.15713,.1369,4.60713,.20112v-1.97806c-.65795,.03633-1.97391,.23889-2.59975,.23889-.3632,0-.49173-.10056-.6244-.33251-.13411-.29053-.13411-.98345-.13411-2.83298v-1.50314c1.44864,.19977,1.61765,.2263,2.46844,.2263,7.1342,0,9.80233-5.29576,9.80233-9.6291,0-3.87938-1.90682-7.82291-6.31835-7.82291-2.72548,0-4.40601,1.56737-6.01529,3.64464"/><path class="e" d="M34.76809,169.57785l1.25796-2.17926,.67261-1.17485,.67261-1.16505c.45961-.78648,1.39979-1.10497,2.0822-.70265l7.74674,4.45622-6.88552,3.97157-5.5466-3.20598Zm8.99562-12.0627c-.84512-.48472-1.13008-1.58275-.64815-2.42087l2.14922-3.74384c.49587-.84656,1.57646-1.13151,2.42644-.64958l11.36348,6.55165v4.71191l-3.7703,2.18205-11.52069-6.63133Zm-9.90297,3.53706l-12.24287-7.05875v-9.16677l16.20608,9.33578c1.03716,.59651,1.39478,1.93479,.79763,2.97131l-1.79303,3.11937c-.40018,.68591-1.13222,1.08409-1.89216,1.08409-.36248,0-.73476-.08805-1.07565-.28502m17.58412-17.52189c-.68384-.39953-.92337-1.29501-.52312-1.98085l.59086-1.02958,.59722-1.0421,1.36968-2.37759,5.57521,3.22415v7.58817l-7.60984-4.38219Zm-9.6208,3.69635l-16.10121-9.27713,7.94235-4.59876,12.12135,6.99173c1.04003,.59365,1.39622,1.93336,.79621,2.96709l-1.78738,3.11522c-.40512,.70122-1.13852,1.08959-1.89145,1.08959-.36949,0-.7432-.09362-1.07987-.28774m-22.86593-8.40683l.00486,24.65052,21.35657,12.32805,21.35378-12.33506-.00701-24.65331-21.35163-12.3239-21.35656,12.3337Z"/></g></g></svg>