<svg width="498" height="282" viewBox="0 0 498 282" fill="none" xmlns="http://www.w3.org/2000/svg">
<rect width="498" height="282" fill="white"/>
<g clip-path="url(#clip0_4132_39)">
<path d="M449.71 176.8L49 178.83V171.24L449.71 173.27V176.8Z" fill="black"/>
<path d="M62.52 104.51H98.7L96.2 115.69H71.34L68.22 129.67H89.77L87.46 140.01H65.91L60.32 165H49L62.52 104.51Z" fill="black"/>
<path d="M95.0302 129.79H104.69L102.95 136.33H103.09C106.13 131.9 111.96 128.84 116.89 128.84C117.61 128.84 118.43 128.98 119.02 129.18L116.63 138.17C115.75 137.97 114.29 137.83 113.07 137.83C105.63 137.83 101.69 142.94 100.04 149.13L95.8202 165H85.6602L95.0302 129.79Z" fill="black"/>
<path d="M125.15 149.74C123.8 155.87 126.21 158.66 131.87 158.66C135.95 158.66 139.88 156.28 141.17 154.1H150.05C144.98 162.41 137.95 165.95 129.57 165.95C117.9 165.95 112.7 158.32 115.6 147.43C118.41 136.87 128.21 128.84 139.44 128.84C151.32 128.84 154.98 138.24 152.73 146.68L151.91 149.74H125.14H125.15ZM143.39 143.61C143.69 138.71 142.16 136.12 137.22 136.12C130.78 136.12 127.65 140.89 126.78 143.61H143.39Z" fill="black"/>
<path d="M162.64 153.55C161.59 157.77 164.86 159.47 168.87 159.47C171.8 159.47 175.82 158.38 176.72 154.98C177.5 152.05 173.55 151.03 166.65 149.53C161.11 148.3 155.76 146.33 157.41 140.13C159.8 131.14 168.58 128.83 176.52 128.83C184.46 128.83 191.36 131.42 189.85 140.07H180.19C180.9 136.32 178.17 135.3 174.52 135.3C171.23 135.3 168.67 136.05 168 138.57C167.31 141.16 169.92 142.11 176.38 143.4C184.27 144.97 188.93 147.35 187.24 153.68C184.77 162.94 175.53 165.94 167.09 165.94C158.65 165.94 150.94 162.88 152.99 153.55H162.65H162.64Z" fill="black"/>
<path d="M200.88 116.37H211.04L206.16 134.69H206.37C210 130.74 214.94 128.83 218.74 128.83C229.55 128.83 230.73 134.62 228.41 143.33L222.65 164.99H212.49L217.78 145.11C219.32 139.32 218.29 136.46 213.57 136.46C208.06 136.46 204.92 139.39 203.01 146.54L198.1 165H187.94L200.88 116.38V116.37Z" fill="black"/>
<path d="M237.85 144.16C237.71 145.94 237.58 147.29 237.89 149.58C239.07 158.47 245.29 160.51 249.83 160.51C260.34 160.51 263.14 152.29 263.3 148.4C263.41 145.94 262.69 143.66 261.26 142.13C260.16 140.86 258.77 140.1 256.18 138.74L250.47 135.86C244.63 132.81 239.42 129.42 239.8 120.61C240.07 114.17 243.51 108.41 249.59 105.78C252.63 104.43 256.25 104 258.55 104C260.18 104 264.64 104.25 268.28 106.37C274.03 109.84 275.11 116.37 275.22 120.09L269.24 121.87C268.89 118.91 268.39 114.84 265.31 112.21C263.42 110.52 260.67 109.75 258.02 109.75C251.03 109.75 246.37 114.24 246.12 119.92C245.91 124.83 249.03 126.44 254.2 129.24L261.3 132.88C266.34 135.51 269.81 140.17 269.5 147.28C269.21 154.06 266.27 159.48 261.44 162.78C257.18 165.75 253.09 166.08 249.57 166.08C246.59 166.08 242.12 165.74 237.97 162.86C235.99 161.5 230.85 157.95 231.38 145.66L237.82 144.14L237.85 144.16Z" fill="black"/>
<path d="M305.31 155.03C301.06 164.1 292.41 165.82 287.05 165.82C277.84 165.82 272.09 160.2 272.49 150.83C272.95 140.19 280.6 128.8 293.99 128.8C303.68 128.8 307.67 134.87 307.31 143.26C307.22 145.36 306.93 146.56 306.64 147.91H278.84C278.72 148.88 278.61 149.63 278.57 150.53C278.19 159.52 285.28 161.25 288.59 161.25C290.01 161.25 291.36 161.02 292.64 160.5C296.96 159 298.5 156 299.53 154.06L305.32 155.03H305.31ZM301.15 143.64C301.26 143.04 301.27 142.59 301.3 142.07C301.55 136.22 297.5 133.3 293.41 133.3C290.65 133.3 283.5 134.87 280.21 143.64H301.16H301.15Z" fill="black"/>
<path d="M331.54 134.64C329.42 134.56 327.21 134.49 324.63 135.91C319.63 138.68 317.7 145.2 316.77 148.35L312.04 164.99H306.05L316.06 129.69H322.12L320.36 135.91C321.37 134.34 321.88 133.51 324.24 131.71C325.55 130.66 327.58 129.01 331.6 129.01C332.07 129.01 332.55 129.01 333.09 129.09L331.51 134.64H331.54Z" fill="black"/>
<path d="M369.31 129.7L344.88 165H338.42L336.23 129.7H342.06L343.33 158.85L362.53 129.7H369.3H369.31Z" fill="black"/>
<path d="M378.76 129.7L368.75 165H362.45L372.54 129.7H378.76ZM381.98 118.83H375.52L377.46 112.09H383.92L381.98 118.83Z" fill="black"/>
<path d="M411.26 154.28C408.32 160.35 403.72 163.05 402.35 163.8C398.73 165.67 395.02 165.82 392.81 165.82C390.37 165.82 386.44 165.6 383.08 163.2C377.57 159.38 377.69 153.01 377.78 150.98C378.27 139.51 386.52 128.8 399.44 128.8C408.73 128.8 413.24 133.82 413.48 139.44L407.6 140.79C407.15 138.47 406.02 133.6 399.01 133.6C390.03 133.6 384.52 142.89 384.19 150.61C383.96 156.08 386.72 161.48 393.49 161.48C395.14 161.48 397.2 161.18 399.55 159.76C402.78 157.81 403.91 155.41 404.78 153.47L411.28 154.29L411.26 154.28Z" fill="black"/>
<path d="M447.69 155.03C443.44 164.1 434.79 165.82 429.43 165.82C420.22 165.82 414.47 160.2 414.87 150.83C415.33 140.19 422.98 128.8 436.37 128.8C446.06 128.8 450.05 134.87 449.69 143.26C449.6 145.36 449.31 146.56 449.02 147.91H421.22C421.1 148.88 420.99 149.63 420.95 150.53C420.57 159.52 427.66 161.25 430.97 161.25C432.39 161.25 433.74 161.02 435.02 160.5C439.34 159 440.88 156 441.91 154.06L447.7 155.03H447.69ZM443.53 143.64C443.64 143.04 443.65 142.59 443.68 142.07C443.93 136.22 439.88 133.3 435.79 133.3C433.03 133.3 425.88 134.87 422.59 143.64H443.54H443.53Z" fill="black"/>
</g>
<defs>
<clipPath id="clip0_4132_39">
<rect width="400.71" height="74.83" fill="white" transform="translate(49 104)"/>
</clipPath>
</defs>
</svg>
